<mxfile host="app.diagrams.net" modified="2024-04-17T03:20:21.611Z" agent="Mozilla/5.0 (X11; Linux x86_64) AppleWebKit/537.36 (KHTML, like Gecko) Chrome/123.0.0.0 Safari/537.36" etag="trUUD07R9MJoyd440gy3" version="24.2.5" type="device">
  <diagram name="Página-1" id="sE8TxzYbct-pUEscZv8K">
    <mxGraphModel dx="4780" dy="3606" grid="1" gridSize="10" guides="1" tooltips="1" connect="1" arrows="1" fold="1" page="1" pageScale="1" pageWidth="827" pageHeight="1169" math="0" shadow="0">
      <root>
        <mxCell id="0" />
        <mxCell id="1" parent="0" />
        <mxCell id="MwEgYgfD7xU0poDzZwF_-33" value="" style="edgeStyle=orthogonalEdgeStyle;rounded=0;orthogonalLoop=1;jettySize=auto;html=1;" parent="1" source="MwEgYgfD7xU0poDzZwF_-1" target="MwEgYgfD7xU0poDzZwF_-27" edge="1">
          <mxGeometry relative="1" as="geometry" />
        </mxCell>
        <mxCell id="MwEgYgfD7xU0poDzZwF_-1" value="PESOS" style="whiteSpace=wrap;html=1;aspect=fixed;" parent="1" vertex="1">
          <mxGeometry x="360" y="320" width="90" height="90" as="geometry" />
        </mxCell>
        <mxCell id="MwEgYgfD7xU0poDzZwF_-20" style="edgeStyle=orthogonalEdgeStyle;rounded=0;orthogonalLoop=1;jettySize=auto;html=1;exitX=0;exitY=1;exitDx=0;exitDy=0;entryX=0.5;entryY=0;entryDx=0;entryDy=0;" parent="1" source="MwEgYgfD7xU0poDzZwF_-6" target="MwEgYgfD7xU0poDzZwF_-1" edge="1">
          <mxGeometry relative="1" as="geometry" />
        </mxCell>
        <mxCell id="MwEgYgfD7xU0poDzZwF_-22" style="edgeStyle=orthogonalEdgeStyle;rounded=0;orthogonalLoop=1;jettySize=auto;html=1;exitX=0.5;exitY=1;exitDx=0;exitDy=0;entryX=0.5;entryY=0;entryDx=0;entryDy=0;" parent="1" source="MwEgYgfD7xU0poDzZwF_-6" target="MwEgYgfD7xU0poDzZwF_-7" edge="1">
          <mxGeometry relative="1" as="geometry" />
        </mxCell>
        <mxCell id="MwEgYgfD7xU0poDzZwF_-23" style="edgeStyle=orthogonalEdgeStyle;rounded=0;orthogonalLoop=1;jettySize=auto;html=1;exitX=1;exitY=1;exitDx=0;exitDy=0;" parent="1" source="MwEgYgfD7xU0poDzZwF_-6" target="MwEgYgfD7xU0poDzZwF_-8" edge="1">
          <mxGeometry relative="1" as="geometry" />
        </mxCell>
        <mxCell id="MwEgYgfD7xU0poDzZwF_-6" value="VACA" style="ellipse;whiteSpace=wrap;html=1;" parent="1" vertex="1">
          <mxGeometry x="530" y="150" width="130" height="130" as="geometry" />
        </mxCell>
        <mxCell id="MwEgYgfD7xU0poDzZwF_-37" style="edgeStyle=orthogonalEdgeStyle;rounded=0;orthogonalLoop=1;jettySize=auto;html=1;exitX=0.5;exitY=1;exitDx=0;exitDy=0;entryX=0.5;entryY=0;entryDx=0;entryDy=0;" parent="1" source="MwEgYgfD7xU0poDzZwF_-8" target="MwEgYgfD7xU0poDzZwF_-35" edge="1">
          <mxGeometry relative="1" as="geometry" />
        </mxCell>
        <mxCell id="MwEgYgfD7xU0poDzZwF_-8" value="ID" style="whiteSpace=wrap;html=1;aspect=fixed;" parent="1" vertex="1">
          <mxGeometry x="720" y="320" width="90" height="90" as="geometry" />
        </mxCell>
        <mxCell id="MwEgYgfD7xU0poDzZwF_-39" style="edgeStyle=orthogonalEdgeStyle;rounded=0;orthogonalLoop=1;jettySize=auto;html=1;" parent="1" source="MwEgYgfD7xU0poDzZwF_-7" target="MwEgYgfD7xU0poDzZwF_-38" edge="1">
          <mxGeometry relative="1" as="geometry" />
        </mxCell>
        <mxCell id="MwEgYgfD7xU0poDzZwF_-7" value="MESES" style="whiteSpace=wrap;html=1;aspect=fixed;" parent="1" vertex="1">
          <mxGeometry x="550" y="320" width="90" height="90" as="geometry" />
        </mxCell>
        <mxCell id="MwEgYgfD7xU0poDzZwF_-25" value="PESO 1" style="rounded=0;whiteSpace=wrap;html=1;" parent="1" vertex="1">
          <mxGeometry x="360" y="450" width="90" height="30" as="geometry" />
        </mxCell>
        <mxCell id="MwEgYgfD7xU0poDzZwF_-26" value="PESO 2" style="rounded=0;whiteSpace=wrap;html=1;" parent="1" vertex="1">
          <mxGeometry x="360" y="500" width="90" height="30" as="geometry" />
        </mxCell>
        <mxCell id="MwEgYgfD7xU0poDzZwF_-27" value="PESO 3" style="rounded=0;whiteSpace=wrap;html=1;" parent="1" vertex="1">
          <mxGeometry x="360" y="549.5" width="90" height="30" as="geometry" />
        </mxCell>
        <mxCell id="MwEgYgfD7xU0poDzZwF_-35" value="ÚNICA" style="rounded=0;whiteSpace=wrap;html=1;" parent="1" vertex="1">
          <mxGeometry x="720" y="450" width="90" height="30" as="geometry" />
        </mxCell>
        <mxCell id="MwEgYgfD7xU0poDzZwF_-38" value="ÚNICA" style="rounded=0;whiteSpace=wrap;html=1;" parent="1" vertex="1">
          <mxGeometry x="550" y="450" width="90" height="30" as="geometry" />
        </mxCell>
        <mxCell id="O1ucOyqNIMPhOtmIxo3v-5" style="edgeStyle=orthogonalEdgeStyle;rounded=0;orthogonalLoop=1;jettySize=auto;html=1;exitX=0.5;exitY=1;exitDx=0;exitDy=0;" parent="1" source="O1ucOyqNIMPhOtmIxo3v-1" target="MwEgYgfD7xU0poDzZwF_-6" edge="1">
          <mxGeometry relative="1" as="geometry" />
        </mxCell>
        <mxCell id="O1ucOyqNIMPhOtmIxo3v-1" value="USUÁRIO" style="whiteSpace=wrap;html=1;aspect=fixed;" parent="1" vertex="1">
          <mxGeometry x="552.5" y="10" width="85" height="85" as="geometry" />
        </mxCell>
        <mxCell id="O1ucOyqNIMPhOtmIxo3v-4" value="USERS" style="swimlane;whiteSpace=wrap;html=1;flipV=0;flipH=1;" parent="1" vertex="1">
          <mxGeometry x="200" y="10" width="200" height="170" as="geometry" />
        </mxCell>
        <mxCell id="O1ucOyqNIMPhOtmIxo3v-6" value="USUÁRIO" style="rounded=0;whiteSpace=wrap;html=1;flipH=1;flipV=1;" parent="O1ucOyqNIMPhOtmIxo3v-4" vertex="1">
          <mxGeometry y="20" width="200" height="30" as="geometry" />
        </mxCell>
        <mxCell id="O1ucOyqNIMPhOtmIxo3v-7" value="&lt;div style=&quot;&quot;&gt;&lt;br&gt;&lt;/div&gt;&lt;span style=&quot;color: rgb(0, 0, 0); font-family: Helvetica; font-size: 12px; font-style: normal; font-variant-ligatures: normal; font-variant-caps: normal; font-weight: 400; letter-spacing: normal; orphans: 2; text-indent: 0px; text-transform: none; widows: 2; word-spacing: 0px; -webkit-text-stroke-width: 0px; white-space: normal; background-color: rgb(251, 251, 251); text-decoration-thickness: initial; text-decoration-style: initial; text-decoration-color: initial; float: none; display: inline !important;&quot;&gt;&lt;div style=&quot;&quot;&gt;USUÁRIO&lt;/div&gt;&lt;/span&gt;&lt;div style=&quot;&quot;&gt;&lt;br&gt;&lt;/div&gt;" style="rounded=0;whiteSpace=wrap;html=1;container=0;flipV=1;flipH=0;direction=east;align=center;" parent="O1ucOyqNIMPhOtmIxo3v-4" vertex="1">
          <mxGeometry y="50" width="200" height="30" as="geometry" />
        </mxCell>
        <mxCell id="O1ucOyqNIMPhOtmIxo3v-9" value="&lt;br&gt;&lt;span style=&quot;color: rgb(0, 0, 0); font-family: Helvetica; font-size: 12px; font-style: normal; font-variant-ligatures: normal; font-variant-caps: normal; font-weight: 400; letter-spacing: normal; orphans: 2; text-indent: 0px; text-transform: none; widows: 2; word-spacing: 0px; -webkit-text-stroke-width: 0px; white-space: normal; background-color: rgb(251, 251, 251); text-decoration-thickness: initial; text-decoration-style: initial; text-decoration-color: initial; float: none; display: inline !important;&quot;&gt;USUÁRIO&lt;/span&gt;&lt;div&gt;&lt;br/&gt;&lt;/div&gt;" style="rounded=0;whiteSpace=wrap;html=1;container=1;movable=1;resizable=1;rotatable=1;deletable=1;editable=1;locked=0;connectable=1;align=center;" parent="O1ucOyqNIMPhOtmIxo3v-4" vertex="1">
          <mxGeometry y="80" width="200" height="30" as="geometry" />
        </mxCell>
        <mxCell id="O1ucOyqNIMPhOtmIxo3v-8" value="&lt;br&gt;&lt;span style=&quot;color: rgb(0, 0, 0); font-family: Helvetica; font-size: 12px; font-style: normal; font-variant-ligatures: normal; font-variant-caps: normal; font-weight: 400; letter-spacing: normal; orphans: 2; text-indent: 0px; text-transform: none; widows: 2; word-spacing: 0px; -webkit-text-stroke-width: 0px; white-space: normal; background-color: rgb(251, 251, 251); text-decoration-thickness: initial; text-decoration-style: initial; text-decoration-color: initial; float: none; display: inline !important;&quot;&gt;USUÁRIO&lt;/span&gt;&lt;div&gt;&lt;br/&gt;&lt;/div&gt;" style="rounded=0;whiteSpace=wrap;html=1;align=center;" parent="O1ucOyqNIMPhOtmIxo3v-4" vertex="1">
          <mxGeometry y="110" width="200" height="30" as="geometry" />
        </mxCell>
        <mxCell id="O1ucOyqNIMPhOtmIxo3v-10" value="&lt;br&gt;&lt;span style=&quot;color: rgb(0, 0, 0); font-family: Helvetica; font-size: 12px; font-style: normal; font-variant-ligatures: normal; font-variant-caps: normal; font-weight: 400; letter-spacing: normal; orphans: 2; text-indent: 0px; text-transform: none; widows: 2; word-spacing: 0px; -webkit-text-stroke-width: 0px; white-space: normal; background-color: rgb(251, 251, 251); text-decoration-thickness: initial; text-decoration-style: initial; text-decoration-color: initial; float: none; display: inline !important;&quot;&gt;USUÁRIO&lt;/span&gt;&lt;div&gt;&lt;br/&gt;&lt;/div&gt;" style="rounded=0;whiteSpace=wrap;html=1;align=center;" parent="O1ucOyqNIMPhOtmIxo3v-4" vertex="1">
          <mxGeometry y="140" width="200" height="30" as="geometry" />
        </mxCell>
        <mxCell id="O1ucOyqNIMPhOtmIxo3v-20" style="edgeStyle=orthogonalEdgeStyle;rounded=0;orthogonalLoop=1;jettySize=auto;html=1;exitX=1;exitY=0.5;exitDx=0;exitDy=0;entryX=0;entryY=0.5;entryDx=0;entryDy=0;" parent="1" source="O1ucOyqNIMPhOtmIxo3v-9" target="O1ucOyqNIMPhOtmIxo3v-1" edge="1">
          <mxGeometry relative="1" as="geometry" />
        </mxCell>
        <mxCell id="O1ucOyqNIMPhOtmIxo3v-22" value="FUNCIONALIDADES ( CONCEITO )" style="rounded=0;whiteSpace=wrap;html=1;" parent="1" vertex="1">
          <mxGeometry x="4" y="660" width="820" height="60" as="geometry" />
        </mxCell>
        <mxCell id="O1ucOyqNIMPhOtmIxo3v-43" style="edgeStyle=orthogonalEdgeStyle;rounded=0;orthogonalLoop=1;jettySize=auto;html=1;exitX=0.5;exitY=1;exitDx=0;exitDy=0;entryX=0.5;entryY=0;entryDx=0;entryDy=0;" parent="1" source="O1ucOyqNIMPhOtmIxo3v-23" target="O1ucOyqNIMPhOtmIxo3v-40" edge="1">
          <mxGeometry relative="1" as="geometry" />
        </mxCell>
        <mxCell id="O1ucOyqNIMPhOtmIxo3v-44" style="edgeStyle=orthogonalEdgeStyle;rounded=0;orthogonalLoop=1;jettySize=auto;html=1;exitX=0.5;exitY=1;exitDx=0;exitDy=0;entryX=0.5;entryY=0;entryDx=0;entryDy=0;" parent="1" source="O1ucOyqNIMPhOtmIxo3v-23" target="O1ucOyqNIMPhOtmIxo3v-41" edge="1">
          <mxGeometry relative="1" as="geometry" />
        </mxCell>
        <mxCell id="O1ucOyqNIMPhOtmIxo3v-45" style="edgeStyle=orthogonalEdgeStyle;rounded=0;orthogonalLoop=1;jettySize=auto;html=1;exitX=0.5;exitY=1;exitDx=0;exitDy=0;entryX=0.5;entryY=0;entryDx=0;entryDy=0;" parent="1" source="O1ucOyqNIMPhOtmIxo3v-23" target="O1ucOyqNIMPhOtmIxo3v-42" edge="1">
          <mxGeometry relative="1" as="geometry" />
        </mxCell>
        <mxCell id="O1ucOyqNIMPhOtmIxo3v-23" value="CADASTRAMENTO DE GADO" style="whiteSpace=wrap;html=1;aspect=fixed;" parent="1" vertex="1">
          <mxGeometry x="324" y="750" width="180" height="180" as="geometry" />
        </mxCell>
        <mxCell id="O1ucOyqNIMPhOtmIxo3v-51" style="edgeStyle=orthogonalEdgeStyle;rounded=0;orthogonalLoop=1;jettySize=auto;html=1;exitX=1;exitY=0.5;exitDx=0;exitDy=0;entryX=0;entryY=0.5;entryDx=0;entryDy=0;" parent="1" source="O1ucOyqNIMPhOtmIxo3v-24" target="O1ucOyqNIMPhOtmIxo3v-27" edge="1">
          <mxGeometry relative="1" as="geometry" />
        </mxCell>
        <mxCell id="O1ucOyqNIMPhOtmIxo3v-24" value="ENVIO VIA FORMULÁRIO PARA BANCO DE DADOS AS INFORMAÇÕES" style="rounded=0;whiteSpace=wrap;html=1;" parent="1" vertex="1">
          <mxGeometry x="239" y="1140" width="350" height="60" as="geometry" />
        </mxCell>
        <mxCell id="O1ucOyqNIMPhOtmIxo3v-25" value="EXIBIR OS VALORES ONDE PRECISAR COM UM LOOP" style="rounded=0;whiteSpace=wrap;html=1;" parent="1" vertex="1">
          <mxGeometry x="239" y="1235" width="350" height="60" as="geometry" />
        </mxCell>
        <mxCell id="O1ucOyqNIMPhOtmIxo3v-52" style="edgeStyle=orthogonalEdgeStyle;rounded=0;orthogonalLoop=1;jettySize=auto;html=1;exitX=0.5;exitY=1;exitDx=0;exitDy=0;entryX=1;entryY=0.5;entryDx=0;entryDy=0;" parent="1" source="O1ucOyqNIMPhOtmIxo3v-27" target="O1ucOyqNIMPhOtmIxo3v-25" edge="1">
          <mxGeometry relative="1" as="geometry" />
        </mxCell>
        <mxCell id="O1ucOyqNIMPhOtmIxo3v-27" value="BANCO DE DADOS MSYQL" style="whiteSpace=wrap;html=1;aspect=fixed;" parent="1" vertex="1">
          <mxGeometry x="660" y="1101.5" width="137" height="137" as="geometry" />
        </mxCell>
        <mxCell id="O1ucOyqNIMPhOtmIxo3v-53" style="edgeStyle=orthogonalEdgeStyle;rounded=0;orthogonalLoop=1;jettySize=auto;html=1;exitX=0.5;exitY=1;exitDx=0;exitDy=0;entryX=0.5;entryY=0;entryDx=0;entryDy=0;" parent="1" source="O1ucOyqNIMPhOtmIxo3v-35" target="O1ucOyqNIMPhOtmIxo3v-39" edge="1">
          <mxGeometry relative="1" as="geometry" />
        </mxCell>
        <mxCell id="O1ucOyqNIMPhOtmIxo3v-35" value="EDIÇÂO DE VALORES DO GADO" style="whiteSpace=wrap;html=1;aspect=fixed;" parent="1" vertex="1">
          <mxGeometry x="315" y="1350" width="180" height="180" as="geometry" />
        </mxCell>
        <mxCell id="O1ucOyqNIMPhOtmIxo3v-62" style="edgeStyle=orthogonalEdgeStyle;rounded=0;orthogonalLoop=1;jettySize=auto;html=1;exitX=1;exitY=0.5;exitDx=0;exitDy=0;" parent="1" source="O1ucOyqNIMPhOtmIxo3v-39" target="O1ucOyqNIMPhOtmIxo3v-59" edge="1">
          <mxGeometry relative="1" as="geometry" />
        </mxCell>
        <mxCell id="O1ucOyqNIMPhOtmIxo3v-39" value="ENVIO VIA FORMULÁRIO OS NOVOS VALORES" style="rounded=0;whiteSpace=wrap;html=1;" parent="1" vertex="1">
          <mxGeometry x="255" y="1570" width="300" height="60" as="geometry" />
        </mxCell>
        <mxCell id="O1ucOyqNIMPhOtmIxo3v-40" value="ID" style="whiteSpace=wrap;html=1;aspect=fixed;" parent="1" vertex="1">
          <mxGeometry x="379" y="1010" width="70" height="70" as="geometry" />
        </mxCell>
        <mxCell id="O1ucOyqNIMPhOtmIxo3v-48" style="edgeStyle=orthogonalEdgeStyle;rounded=0;orthogonalLoop=1;jettySize=auto;html=1;exitX=0.5;exitY=1;exitDx=0;exitDy=0;entryX=0.5;entryY=0;entryDx=0;entryDy=0;" parent="1" source="O1ucOyqNIMPhOtmIxo3v-41" target="O1ucOyqNIMPhOtmIxo3v-24" edge="1">
          <mxGeometry relative="1" as="geometry" />
        </mxCell>
        <mxCell id="O1ucOyqNIMPhOtmIxo3v-41" value="PESO" style="whiteSpace=wrap;html=1;aspect=fixed;" parent="1" vertex="1">
          <mxGeometry x="280" y="1010" width="70" height="70" as="geometry" />
        </mxCell>
        <mxCell id="O1ucOyqNIMPhOtmIxo3v-49" style="edgeStyle=orthogonalEdgeStyle;rounded=0;orthogonalLoop=1;jettySize=auto;html=1;exitX=0.5;exitY=1;exitDx=0;exitDy=0;entryX=0.5;entryY=0;entryDx=0;entryDy=0;" parent="1" source="O1ucOyqNIMPhOtmIxo3v-42" target="O1ucOyqNIMPhOtmIxo3v-24" edge="1">
          <mxGeometry relative="1" as="geometry" />
        </mxCell>
        <mxCell id="O1ucOyqNIMPhOtmIxo3v-42" value="LIFE" style="whiteSpace=wrap;html=1;aspect=fixed;" parent="1" vertex="1">
          <mxGeometry x="482.5" y="1010" width="70" height="70" as="geometry" />
        </mxCell>
        <mxCell id="O1ucOyqNIMPhOtmIxo3v-47" style="edgeStyle=orthogonalEdgeStyle;rounded=0;orthogonalLoop=1;jettySize=auto;html=1;exitX=0.5;exitY=1;exitDx=0;exitDy=0;entryX=0.5;entryY=0;entryDx=0;entryDy=0;" parent="1" source="O1ucOyqNIMPhOtmIxo3v-40" target="O1ucOyqNIMPhOtmIxo3v-24" edge="1">
          <mxGeometry relative="1" as="geometry" />
        </mxCell>
        <mxCell id="O1ucOyqNIMPhOtmIxo3v-57" value="EXIBIR OS VALORES NOVAMENTE" style="rounded=0;whiteSpace=wrap;html=1;" parent="1" vertex="1">
          <mxGeometry x="250" y="1670" width="305" height="60" as="geometry" />
        </mxCell>
        <mxCell id="O1ucOyqNIMPhOtmIxo3v-63" style="edgeStyle=orthogonalEdgeStyle;rounded=0;orthogonalLoop=1;jettySize=auto;html=1;exitX=0.5;exitY=1;exitDx=0;exitDy=0;entryX=1;entryY=0.5;entryDx=0;entryDy=0;" parent="1" source="O1ucOyqNIMPhOtmIxo3v-59" target="O1ucOyqNIMPhOtmIxo3v-57" edge="1">
          <mxGeometry relative="1" as="geometry" />
        </mxCell>
        <mxCell id="O1ucOyqNIMPhOtmIxo3v-59" value="BANCO DE DADOS MSYQL" style="whiteSpace=wrap;html=1;aspect=fixed;" parent="1" vertex="1">
          <mxGeometry x="650" y="1537.75" width="124.5" height="124.5" as="geometry" />
        </mxCell>
        <mxCell id="jv2iICr_-W-k_A26qhbh-1" value="login" style="rounded=1;whiteSpace=wrap;html=1;" vertex="1" parent="1">
          <mxGeometry x="2240" y="-250" width="120" height="60" as="geometry" />
        </mxCell>
        <mxCell id="jv2iICr_-W-k_A26qhbh-40" style="edgeStyle=orthogonalEdgeStyle;rounded=0;orthogonalLoop=1;jettySize=auto;html=1;" edge="1" parent="1" source="jv2iICr_-W-k_A26qhbh-2" target="jv2iICr_-W-k_A26qhbh-35">
          <mxGeometry relative="1" as="geometry">
            <Array as="points">
              <mxPoint x="2390" y="65" />
            </Array>
          </mxGeometry>
        </mxCell>
        <mxCell id="jv2iICr_-W-k_A26qhbh-2" value="database usuarios" style="rounded=1;whiteSpace=wrap;html=1;" vertex="1" parent="1">
          <mxGeometry x="2240" y="35" width="120" height="60" as="geometry" />
        </mxCell>
        <mxCell id="jv2iICr_-W-k_A26qhbh-57" style="edgeStyle=orthogonalEdgeStyle;rounded=0;orthogonalLoop=1;jettySize=auto;html=1;" edge="1" parent="1" source="jv2iICr_-W-k_A26qhbh-5" target="jv2iICr_-W-k_A26qhbh-10">
          <mxGeometry relative="1" as="geometry" />
        </mxCell>
        <mxCell id="jv2iICr_-W-k_A26qhbh-63" style="edgeStyle=orthogonalEdgeStyle;rounded=0;orthogonalLoop=1;jettySize=auto;html=1;" edge="1" parent="1" source="jv2iICr_-W-k_A26qhbh-5" target="jv2iICr_-W-k_A26qhbh-55">
          <mxGeometry relative="1" as="geometry" />
        </mxCell>
        <mxCell id="jv2iICr_-W-k_A26qhbh-5" value="table users" style="swimlane;fontStyle=0;childLayout=stackLayout;horizontal=1;startSize=30;horizontalStack=0;resizeParent=1;resizeParentMax=0;resizeLast=0;collapsible=1;marginBottom=0;whiteSpace=wrap;html=1;" vertex="1" parent="1">
          <mxGeometry x="2600" y="300" width="140" height="120" as="geometry" />
        </mxCell>
        <mxCell id="jv2iICr_-W-k_A26qhbh-6" value="pedro" style="text;strokeColor=none;fillColor=none;align=left;verticalAlign=middle;spacingLeft=4;spacingRight=4;overflow=hidden;points=[[0,0.5],[1,0.5]];portConstraint=eastwest;rotatable=0;whiteSpace=wrap;html=1;" vertex="1" parent="jv2iICr_-W-k_A26qhbh-5">
          <mxGeometry y="30" width="140" height="30" as="geometry" />
        </mxCell>
        <mxCell id="jv2iICr_-W-k_A26qhbh-7" value="matheus" style="text;strokeColor=none;fillColor=none;align=left;verticalAlign=middle;spacingLeft=4;spacingRight=4;overflow=hidden;points=[[0,0.5],[1,0.5]];portConstraint=eastwest;rotatable=0;whiteSpace=wrap;html=1;" vertex="1" parent="jv2iICr_-W-k_A26qhbh-5">
          <mxGeometry y="60" width="140" height="30" as="geometry" />
        </mxCell>
        <mxCell id="jv2iICr_-W-k_A26qhbh-8" value="heitor" style="text;strokeColor=none;fillColor=none;align=left;verticalAlign=middle;spacingLeft=4;spacingRight=4;overflow=hidden;points=[[0,0.5],[1,0.5]];portConstraint=eastwest;rotatable=0;whiteSpace=wrap;html=1;" vertex="1" parent="jv2iICr_-W-k_A26qhbh-5">
          <mxGeometry y="90" width="140" height="30" as="geometry" />
        </mxCell>
        <mxCell id="jv2iICr_-W-k_A26qhbh-26" style="edgeStyle=orthogonalEdgeStyle;rounded=0;orthogonalLoop=1;jettySize=auto;html=1;" edge="1" parent="1" source="jv2iICr_-W-k_A26qhbh-10" target="jv2iICr_-W-k_A26qhbh-15">
          <mxGeometry relative="1" as="geometry" />
        </mxCell>
        <mxCell id="jv2iICr_-W-k_A26qhbh-28" style="edgeStyle=orthogonalEdgeStyle;rounded=0;orthogonalLoop=1;jettySize=auto;html=1;" edge="1" parent="1" source="jv2iICr_-W-k_A26qhbh-10" target="jv2iICr_-W-k_A26qhbh-19">
          <mxGeometry relative="1" as="geometry" />
        </mxCell>
        <mxCell id="jv2iICr_-W-k_A26qhbh-29" style="edgeStyle=orthogonalEdgeStyle;rounded=0;orthogonalLoop=1;jettySize=auto;html=1;" edge="1" parent="1" source="jv2iICr_-W-k_A26qhbh-10" target="jv2iICr_-W-k_A26qhbh-11">
          <mxGeometry relative="1" as="geometry" />
        </mxCell>
        <mxCell id="jv2iICr_-W-k_A26qhbh-10" value="database gado" style="rounded=1;whiteSpace=wrap;html=1;" vertex="1" parent="1">
          <mxGeometry x="2610" y="500" width="120" height="60" as="geometry" />
        </mxCell>
        <mxCell id="jv2iICr_-W-k_A26qhbh-11" value="table pedro" style="swimlane;fontStyle=0;childLayout=stackLayout;horizontal=1;startSize=30;horizontalStack=0;resizeParent=1;resizeParentMax=0;resizeLast=0;collapsible=1;marginBottom=0;whiteSpace=wrap;html=1;" vertex="1" parent="1">
          <mxGeometry x="2420" y="680" width="140" height="120" as="geometry" />
        </mxCell>
        <mxCell id="jv2iICr_-W-k_A26qhbh-12" value="vaca 1" style="text;strokeColor=none;fillColor=none;align=left;verticalAlign=middle;spacingLeft=4;spacingRight=4;overflow=hidden;points=[[0,0.5],[1,0.5]];portConstraint=eastwest;rotatable=0;whiteSpace=wrap;html=1;" vertex="1" parent="jv2iICr_-W-k_A26qhbh-11">
          <mxGeometry y="30" width="140" height="30" as="geometry" />
        </mxCell>
        <mxCell id="jv2iICr_-W-k_A26qhbh-13" value="vaca 2" style="text;strokeColor=none;fillColor=none;align=left;verticalAlign=middle;spacingLeft=4;spacingRight=4;overflow=hidden;points=[[0,0.5],[1,0.5]];portConstraint=eastwest;rotatable=0;whiteSpace=wrap;html=1;" vertex="1" parent="jv2iICr_-W-k_A26qhbh-11">
          <mxGeometry y="60" width="140" height="30" as="geometry" />
        </mxCell>
        <mxCell id="jv2iICr_-W-k_A26qhbh-14" value="vaca 3" style="text;strokeColor=none;fillColor=none;align=left;verticalAlign=middle;spacingLeft=4;spacingRight=4;overflow=hidden;points=[[0,0.5],[1,0.5]];portConstraint=eastwest;rotatable=0;whiteSpace=wrap;html=1;" vertex="1" parent="jv2iICr_-W-k_A26qhbh-11">
          <mxGeometry y="90" width="140" height="30" as="geometry" />
        </mxCell>
        <mxCell id="jv2iICr_-W-k_A26qhbh-15" value="heitor&lt;span style=&quot;color: rgba(0, 0, 0, 0); font-family: monospace; font-size: 0px; text-align: start; text-wrap: nowrap;&quot;&gt;%3CmxGraphModel%3E%3Croot%3E%3CmxCell%20id%3D%220%22%2F%3E%3CmxCell%20id%3D%221%22%20parent%3D%220%22%2F%3E%3CmxCell%20id%3D%222%22%20value%3D%22table%20pedro%22%20style%3D%22swimlane%3BfontStyle%3D0%3BchildLayout%3DstackLayout%3Bhorizontal%3D1%3BstartSize%3D30%3BhorizontalStack%3D0%3BresizeParent%3D1%3BresizeParentMax%3D0%3BresizeLast%3D0%3Bcollapsible%3D1%3BmarginBottom%3D0%3BwhiteSpace%3Dwrap%3Bhtml%3D1%3B%22%20vertex%3D%221%22%20parent%3D%221%22%3E%3CmxGeometry%20x%3D%222120%22%20y%3D%22370%22%20width%3D%22140%22%20height%3D%22120%22%20as%3D%22geometry%22%2F%3E%3C%2FmxCell%3E%3CmxCell%20id%3D%223%22%20value%3D%22Item%201%22%20style%3D%22text%3BstrokeColor%3Dnone%3BfillColor%3Dnone%3Balign%3Dleft%3BverticalAlign%3Dmiddle%3BspacingLeft%3D4%3BspacingRight%3D4%3Boverflow%3Dhidden%3Bpoints%3D%5B%5B0%2C0.5%5D%2C%5B1%2C0.5%5D%5D%3BportConstraint%3Deastwest%3Brotatable%3D0%3BwhiteSpace%3Dwrap%3Bhtml%3D1%3B%22%20vertex%3D%221%22%20parent%3D%222%22%3E%3CmxGeometry%20y%3D%2230%22%20width%3D%22140%22%20height%3D%2230%22%20as%3D%22geometry%22%2F%3E%3C%2FmxCell%3E%3CmxCell%20id%3D%224%22%20value%3D%22Item%202%22%20style%3D%22text%3BstrokeColor%3Dnone%3BfillColor%3Dnone%3Balign%3Dleft%3BverticalAlign%3Dmiddle%3BspacingLeft%3D4%3BspacingRight%3D4%3Boverflow%3Dhidden%3Bpoints%3D%5B%5B0%2C0.5%5D%2C%5B1%2C0.5%5D%5D%3BportConstraint%3Deastwest%3Brotatable%3D0%3BwhiteSpace%3Dwrap%3Bhtml%3D1%3B%22%20vertex%3D%221%22%20parent%3D%222%22%3E%3CmxGeometry%20y%3D%2260%22%20width%3D%22140%22%20height%3D%2230%22%20as%3D%22geometry%22%2F%3E%3C%2FmxCell%3E%3CmxCell%20id%3D%225%22%20value%3D%22Item%203%22%20style%3D%22text%3BstrokeColor%3Dnone%3BfillColor%3Dnone%3Balign%3Dleft%3BverticalAlign%3Dmiddle%3BspacingLeft%3D4%3BspacingRight%3D4%3Boverflow%3Dhidden%3Bpoints%3D%5B%5B0%2C0.5%5D%2C%5B1%2C0.5%5D%5D%3BportConstraint%3Deastwest%3Brotatable%3D0%3BwhiteSpace%3Dwrap%3Bhtml%3D1%3B%22%20vertex%3D%221%22%20parent%3D%222%22%3E%3CmxGeometry%20y%3D%2290%22%20width%3D%22140%22%20height%3D%2230%22%20as%3D%22geometry%22%2F%3E%3C%2FmxCell%3E%3C%2Froot%3E%3C%2FmxGraphModel%3E&lt;/span&gt;&lt;span style=&quot;color: rgba(0, 0, 0, 0); font-family: monospace; font-size: 0px; text-align: start; text-wrap: nowrap;&quot;&gt;%3CmxGraphModel%3E%3Croot%3E%3CmxCell%20id%3D%220%22%2F%3E%3CmxCell%20id%3D%221%22%20parent%3D%220%22%2F%3E%3CmxCell%20id%3D%222%22%20value%3D%22table%20pedro%22%20style%3D%22swimlane%3BfontStyle%3D0%3BchildLayout%3DstackLayout%3Bhorizontal%3D1%3BstartSize%3D30%3BhorizontalStack%3D0%3BresizeParent%3D1%3BresizeParentMax%3D0%3BresizeLast%3D0%3Bcollapsible%3D1%3BmarginBottom%3D0%3BwhiteSpace%3Dwrap%3Bhtml%3D1%3B%22%20vertex%3D%221%22%20parent%3D%221%22%3E%3CmxGeometry%20x%3D%222120%22%20y%3D%22370%22%20width%3D%22140%22%20height%3D%22120%22%20as%3D%22geometry%22%2F%3E%3C%2FmxCell%3E%3CmxCell%20id%3D%223%22%20value%3D%22Item%201%22%20style%3D%22text%3BstrokeColor%3Dnone%3BfillColor%3Dnone%3Balign%3Dleft%3BverticalAlign%3Dmiddle%3BspacingLeft%3D4%3BspacingRight%3D4%3Boverflow%3Dhidden%3Bpoints%3D%5B%5B0%2C0.5%5D%2C%5B1%2C0.5%5D%5D%3BportConstraint%3Deastwest%3Brotatable%3D0%3BwhiteSpace%3Dwrap%3Bhtml%3D1%3B%22%20vertex%3D%221%22%20parent%3D%222%22%3E%3CmxGeometry%20y%3D%2230%22%20width%3D%22140%22%20height%3D%2230%22%20as%3D%22geometry%22%2F%3E%3C%2FmxCell%3E%3CmxCell%20id%3D%224%22%20value%3D%22Item%202%22%20style%3D%22text%3BstrokeColor%3Dnone%3BfillColor%3Dnone%3Balign%3Dleft%3BverticalAlign%3Dmiddle%3BspacingLeft%3D4%3BspacingRight%3D4%3Boverflow%3Dhidden%3Bpoints%3D%5B%5B0%2C0.5%5D%2C%5B1%2C0.5%5D%5D%3BportConstraint%3Deastwest%3Brotatable%3D0%3BwhiteSpace%3Dwrap%3Bhtml%3D1%3B%22%20vertex%3D%221%22%20parent%3D%222%22%3E%3CmxGeometry%20y%3D%2260%22%20width%3D%22140%22%20height%3D%2230%22%20as%3D%22geometry%22%2F%3E%3C%2FmxCell%3E%3CmxCell%20id%3D%225%22%20value%3D%22Item%203%22%20style%3D%22text%3BstrokeColor%3Dnone%3BfillColor%3Dnone%3Balign%3Dleft%3BverticalAlign%3Dmiddle%3BspacingLeft%3D4%3BspacingRight%3D4%3Boverflow%3Dhidden%3Bpoints%3D%5B%5B0%2C0.5%5D%2C%5B1%2C0.5%5D%5D%3BportConstraint%3Deastwest%3Brotatable%3D0%3BwhiteSpace%3Dwrap%3Bhtml%3D1%3B%22%20vertex%3D%221%22%20parent%3D%222%22%3E%3CmxGeometry%20y%3D%2290%22%20width%3D%22140%22%20height%3D%2230%22%20as%3D%22geometry%22%2F%3E%3C%2FmxCell%3E%3C%2Froot%3E%3C%2FmxGraphModel%3E&lt;/span&gt;" style="swimlane;fontStyle=0;childLayout=stackLayout;horizontal=1;startSize=30;horizontalStack=0;resizeParent=1;resizeParentMax=0;resizeLast=0;collapsible=1;marginBottom=0;whiteSpace=wrap;html=1;" vertex="1" parent="1">
          <mxGeometry x="2600" y="680" width="140" height="120" as="geometry" />
        </mxCell>
        <mxCell id="jv2iICr_-W-k_A26qhbh-16" value="vaca 1" style="text;strokeColor=none;fillColor=none;align=left;verticalAlign=middle;spacingLeft=4;spacingRight=4;overflow=hidden;points=[[0,0.5],[1,0.5]];portConstraint=eastwest;rotatable=0;whiteSpace=wrap;html=1;" vertex="1" parent="jv2iICr_-W-k_A26qhbh-15">
          <mxGeometry y="30" width="140" height="30" as="geometry" />
        </mxCell>
        <mxCell id="jv2iICr_-W-k_A26qhbh-17" value="vaca 2" style="text;strokeColor=none;fillColor=none;align=left;verticalAlign=middle;spacingLeft=4;spacingRight=4;overflow=hidden;points=[[0,0.5],[1,0.5]];portConstraint=eastwest;rotatable=0;whiteSpace=wrap;html=1;" vertex="1" parent="jv2iICr_-W-k_A26qhbh-15">
          <mxGeometry y="60" width="140" height="30" as="geometry" />
        </mxCell>
        <mxCell id="jv2iICr_-W-k_A26qhbh-18" value="vaca 3" style="text;strokeColor=none;fillColor=none;align=left;verticalAlign=middle;spacingLeft=4;spacingRight=4;overflow=hidden;points=[[0,0.5],[1,0.5]];portConstraint=eastwest;rotatable=0;whiteSpace=wrap;html=1;" vertex="1" parent="jv2iICr_-W-k_A26qhbh-15">
          <mxGeometry y="90" width="140" height="30" as="geometry" />
        </mxCell>
        <mxCell id="jv2iICr_-W-k_A26qhbh-19" value="table matheus" style="swimlane;fontStyle=0;childLayout=stackLayout;horizontal=1;startSize=30;horizontalStack=0;resizeParent=1;resizeParentMax=0;resizeLast=0;collapsible=1;marginBottom=0;whiteSpace=wrap;html=1;" vertex="1" parent="1">
          <mxGeometry x="2780" y="680" width="140" height="120" as="geometry" />
        </mxCell>
        <mxCell id="jv2iICr_-W-k_A26qhbh-20" value="vaca 1" style="text;strokeColor=none;fillColor=none;align=left;verticalAlign=middle;spacingLeft=4;spacingRight=4;overflow=hidden;points=[[0,0.5],[1,0.5]];portConstraint=eastwest;rotatable=0;whiteSpace=wrap;html=1;" vertex="1" parent="jv2iICr_-W-k_A26qhbh-19">
          <mxGeometry y="30" width="140" height="30" as="geometry" />
        </mxCell>
        <mxCell id="jv2iICr_-W-k_A26qhbh-21" value="vaca 2" style="text;strokeColor=none;fillColor=none;align=left;verticalAlign=middle;spacingLeft=4;spacingRight=4;overflow=hidden;points=[[0,0.5],[1,0.5]];portConstraint=eastwest;rotatable=0;whiteSpace=wrap;html=1;" vertex="1" parent="jv2iICr_-W-k_A26qhbh-19">
          <mxGeometry y="60" width="140" height="30" as="geometry" />
        </mxCell>
        <mxCell id="jv2iICr_-W-k_A26qhbh-22" value="vaca 3" style="text;strokeColor=none;fillColor=none;align=left;verticalAlign=middle;spacingLeft=4;spacingRight=4;overflow=hidden;points=[[0,0.5],[1,0.5]];portConstraint=eastwest;rotatable=0;whiteSpace=wrap;html=1;" vertex="1" parent="jv2iICr_-W-k_A26qhbh-19">
          <mxGeometry y="90" width="140" height="30" as="geometry" />
        </mxCell>
        <mxCell id="jv2iICr_-W-k_A26qhbh-33" value="" style="edgeStyle=orthogonalEdgeStyle;rounded=0;orthogonalLoop=1;jettySize=auto;html=1;" edge="1" parent="1" source="jv2iICr_-W-k_A26qhbh-1" target="jv2iICr_-W-k_A26qhbh-32">
          <mxGeometry relative="1" as="geometry">
            <mxPoint x="2300" y="-190" as="sourcePoint" />
            <mxPoint x="2300" y="250" as="targetPoint" />
          </mxGeometry>
        </mxCell>
        <mxCell id="jv2iICr_-W-k_A26qhbh-34" value="requisição user" style="edgeLabel;html=1;align=center;verticalAlign=middle;resizable=0;points=[];" vertex="1" connectable="0" parent="jv2iICr_-W-k_A26qhbh-33">
          <mxGeometry x="-0.1083" y="-1" relative="1" as="geometry">
            <mxPoint as="offset" />
          </mxGeometry>
        </mxCell>
        <mxCell id="jv2iICr_-W-k_A26qhbh-39" style="edgeStyle=orthogonalEdgeStyle;rounded=0;orthogonalLoop=1;jettySize=auto;html=1;" edge="1" parent="1" source="jv2iICr_-W-k_A26qhbh-32" target="jv2iICr_-W-k_A26qhbh-2">
          <mxGeometry relative="1" as="geometry" />
        </mxCell>
        <mxCell id="jv2iICr_-W-k_A26qhbh-32" value="cadastrado?" style="rhombus;whiteSpace=wrap;html=1;" vertex="1" parent="1">
          <mxGeometry x="2260" y="-110" width="80" height="80" as="geometry" />
        </mxCell>
        <mxCell id="jv2iICr_-W-k_A26qhbh-43" style="edgeStyle=orthogonalEdgeStyle;rounded=0;orthogonalLoop=1;jettySize=auto;html=1;entryX=0.5;entryY=0;entryDx=0;entryDy=0;" edge="1" parent="1" source="jv2iICr_-W-k_A26qhbh-35" target="jv2iICr_-W-k_A26qhbh-5">
          <mxGeometry relative="1" as="geometry">
            <mxPoint x="2670" y="290" as="targetPoint" />
          </mxGeometry>
        </mxCell>
        <mxCell id="jv2iICr_-W-k_A26qhbh-35" value="sim" style="rhombus;whiteSpace=wrap;html=1;" vertex="1" parent="1">
          <mxGeometry x="2350" y="130" width="80" height="80" as="geometry" />
        </mxCell>
        <mxCell id="jv2iICr_-W-k_A26qhbh-45" style="edgeStyle=orthogonalEdgeStyle;rounded=0;orthogonalLoop=1;jettySize=auto;html=1;" edge="1" parent="1" source="jv2iICr_-W-k_A26qhbh-36" target="jv2iICr_-W-k_A26qhbh-44">
          <mxGeometry relative="1" as="geometry" />
        </mxCell>
        <mxCell id="jv2iICr_-W-k_A26qhbh-36" value="não" style="rhombus;whiteSpace=wrap;html=1;" vertex="1" parent="1">
          <mxGeometry x="2160" y="130" width="80" height="80" as="geometry" />
        </mxCell>
        <mxCell id="jv2iICr_-W-k_A26qhbh-42" style="edgeStyle=orthogonalEdgeStyle;rounded=0;orthogonalLoop=1;jettySize=auto;html=1;entryX=0.448;entryY=0.088;entryDx=0;entryDy=0;entryPerimeter=0;" edge="1" parent="1" source="jv2iICr_-W-k_A26qhbh-2" target="jv2iICr_-W-k_A26qhbh-36">
          <mxGeometry relative="1" as="geometry">
            <Array as="points">
              <mxPoint x="2196" y="70" />
            </Array>
          </mxGeometry>
        </mxCell>
        <mxCell id="jv2iICr_-W-k_A26qhbh-50" style="edgeStyle=orthogonalEdgeStyle;rounded=0;orthogonalLoop=1;jettySize=auto;html=1;" edge="1" parent="1" source="jv2iICr_-W-k_A26qhbh-44" target="jv2iICr_-W-k_A26qhbh-46">
          <mxGeometry relative="1" as="geometry" />
        </mxCell>
        <mxCell id="jv2iICr_-W-k_A26qhbh-44" value="cadastro" style="whiteSpace=wrap;html=1;aspect=fixed;" vertex="1" parent="1">
          <mxGeometry x="1850" y="270" width="80" height="80" as="geometry" />
        </mxCell>
        <mxCell id="jv2iICr_-W-k_A26qhbh-59" style="edgeStyle=orthogonalEdgeStyle;rounded=0;orthogonalLoop=1;jettySize=auto;html=1;" edge="1" parent="1" source="jv2iICr_-W-k_A26qhbh-46" target="jv2iICr_-W-k_A26qhbh-51">
          <mxGeometry relative="1" as="geometry" />
        </mxCell>
        <mxCell id="jv2iICr_-W-k_A26qhbh-46" value="user" style="swimlane;fontStyle=0;childLayout=stackLayout;horizontal=1;startSize=30;horizontalStack=0;resizeParent=1;resizeParentMax=0;resizeLast=0;collapsible=1;marginBottom=0;whiteSpace=wrap;html=1;" vertex="1" parent="1">
          <mxGeometry x="1820" y="450" width="140" height="120" as="geometry" />
        </mxCell>
        <mxCell id="jv2iICr_-W-k_A26qhbh-47" value="email" style="text;strokeColor=none;fillColor=none;align=left;verticalAlign=middle;spacingLeft=4;spacingRight=4;overflow=hidden;points=[[0,0.5],[1,0.5]];portConstraint=eastwest;rotatable=0;whiteSpace=wrap;html=1;" vertex="1" parent="jv2iICr_-W-k_A26qhbh-46">
          <mxGeometry y="30" width="140" height="30" as="geometry" />
        </mxCell>
        <mxCell id="jv2iICr_-W-k_A26qhbh-48" value="senha" style="text;strokeColor=none;fillColor=none;align=left;verticalAlign=middle;spacingLeft=4;spacingRight=4;overflow=hidden;points=[[0,0.5],[1,0.5]];portConstraint=eastwest;rotatable=0;whiteSpace=wrap;html=1;" vertex="1" parent="jv2iICr_-W-k_A26qhbh-46">
          <mxGeometry y="60" width="140" height="30" as="geometry" />
        </mxCell>
        <mxCell id="jv2iICr_-W-k_A26qhbh-49" value="dados" style="text;strokeColor=none;fillColor=none;align=left;verticalAlign=middle;spacingLeft=4;spacingRight=4;overflow=hidden;points=[[0,0.5],[1,0.5]];portConstraint=eastwest;rotatable=0;whiteSpace=wrap;html=1;" vertex="1" parent="jv2iICr_-W-k_A26qhbh-46">
          <mxGeometry y="90" width="140" height="30" as="geometry" />
        </mxCell>
        <mxCell id="jv2iICr_-W-k_A26qhbh-51" value="logado" style="rounded=1;whiteSpace=wrap;html=1;" vertex="1" parent="1">
          <mxGeometry x="1830" y="680" width="120" height="60" as="geometry" />
        </mxCell>
        <mxCell id="jv2iICr_-W-k_A26qhbh-52" style="edgeStyle=orthogonalEdgeStyle;rounded=0;orthogonalLoop=1;jettySize=auto;html=1;entryX=0.018;entryY=-0.008;entryDx=0;entryDy=0;entryPerimeter=0;" edge="1" parent="1" source="jv2iICr_-W-k_A26qhbh-51" target="jv2iICr_-W-k_A26qhbh-7">
          <mxGeometry relative="1" as="geometry">
            <mxPoint x="2540" y="360" as="targetPoint" />
            <Array as="points">
              <mxPoint x="2240" y="710" />
              <mxPoint x="2240" y="357" />
              <mxPoint x="2602" y="357" />
            </Array>
          </mxGeometry>
        </mxCell>
        <mxCell id="jv2iICr_-W-k_A26qhbh-54" value="database peso" style="rounded=1;whiteSpace=wrap;html=1;" vertex="1" parent="1">
          <mxGeometry x="3160" y="500" width="120" height="60" as="geometry" />
        </mxCell>
        <mxCell id="jv2iICr_-W-k_A26qhbh-55" value="database area" style="rounded=1;whiteSpace=wrap;html=1;" vertex="1" parent="1">
          <mxGeometry x="3650" y="500" width="120" height="60" as="geometry" />
        </mxCell>
        <mxCell id="jv2iICr_-W-k_A26qhbh-56" value="insumos" style="rounded=1;whiteSpace=wrap;html=1;" vertex="1" parent="1">
          <mxGeometry x="4190" y="500" width="120" height="60" as="geometry" />
        </mxCell>
        <mxCell id="jv2iICr_-W-k_A26qhbh-61" style="edgeStyle=orthogonalEdgeStyle;rounded=0;orthogonalLoop=1;jettySize=auto;html=1;" edge="1" parent="1" source="jv2iICr_-W-k_A26qhbh-6" target="jv2iICr_-W-k_A26qhbh-54">
          <mxGeometry relative="1" as="geometry">
            <Array as="points">
              <mxPoint x="3220" y="345" />
            </Array>
          </mxGeometry>
        </mxCell>
        <mxCell id="jv2iICr_-W-k_A26qhbh-64" style="edgeStyle=orthogonalEdgeStyle;rounded=0;orthogonalLoop=1;jettySize=auto;html=1;" edge="1" parent="1" source="jv2iICr_-W-k_A26qhbh-7" target="jv2iICr_-W-k_A26qhbh-56">
          <mxGeometry relative="1" as="geometry" />
        </mxCell>
      </root>
    </mxGraphModel>
  </diagram>
</mxfile>
